<svg width="880" height="928" viewBox="0 0 880 928" fill="none" xmlns="http://www.w3.org/2000/svg">
<g filter="url(#filter0_i)">
<path fill-rule="evenodd" clip-rule="evenodd" d="M4 157.137V848C4 889.974 38.0264 924 80 924H722.863C743.019 924 762.35 915.993 776.603 901.74L853.74 824.603C867.993 810.35 876 791.019 876 770.863V80C876 38.0264 841.974 4 800 4H157.137C136.981 4 117.65 12.0071 103.397 26.2599L26.2599 103.397C12.0071 117.65 4 136.981 4 157.137ZM0 848C0 892.183 35.8172 928 80 928H722.863C744.08 928 764.429 919.571 779.431 904.569L856.569 827.431C871.571 812.429 880 792.08 880 770.863V80C880 35.8172 844.183 0 800 0H157.137C135.92 0 115.571 8.42855 100.569 23.4315L23.4315 100.569C8.42857 115.571 0 135.92 0 157.137V848Z" fill="#0E6D34"/>
</g>
<defs>
<filter id="filter0_i" x="0" y="0" width="880" height="931" filterUnits="userSpaceOnUse" color-interpolation-filters="sRGB">
<feFlood flood-opacity="0" result="BackgroundImageFix"/>
<feBlend mode="normal" in="SourceGraphic" in2="BackgroundImageFix" result="shape"/>
<feColorMatrix in="SourceAlpha" type="matrix" values="0 0 0 0 0 0 0 0 0 0 0 0 0 0 0 0 0 0 127 0" result="hardAlpha"/>
<feOffset dy="3"/>
<feGaussianBlur stdDeviation="6"/>
<feComposite in2="hardAlpha" operator="arithmetic" k2="-1" k3="1"/>
<feColorMatrix type="matrix" values="0 0 0 0 0 0 0 0 0 0 0 0 0 0 0 0 0 0 0.2 0"/>
<feBlend mode="normal" in2="shape" result="effect1_innerShadow"/>
</filter>
</defs>
</svg>
