<svg xmlns="http://www.w3.org/2000/svg" xmlns:xlink="http://www.w3.org/1999/xlink" width="20" height="20" viewBox="0 0 20 20">
  <defs>
    <path id="icon-a" d="M10,0 C4.486,0 0,4.486 0,10 C0,15.514 4.486,20 10,20 C15.514,20 20,15.514 20,10 C20,4.486 15.514,0 10,0 M10,18 C5.589,18 2,14.411 2,10 C2,5.589 5.589,2 10,2 C14.411,2 18,5.589 18,10 C18,14.411 14.411,18 10,18 M10,5 C9.448,5 9,5.447 9,6 L9,10 C9,10.553 9.448,11 10,11 C10.552,11 11,10.553 11,10 L11,6 C11,5.447 10.552,5 10,5 M10,13 C9.448,13 9,13.447 9,14 C9,14.553 9.448,15 10,15 C10.552,15 11,14.553 11,14 C11,13.447 10.552,13 10,13"/>
  </defs>
  <g fill="none" fill-rule="evenodd">
    <use fill="#E2D898" xlink:href="#icon-a"/>
  </g>
</svg>
